<svg xmlns="http://www.w3.org/2000/svg" xmlns:xlink="http://www.w3.org/1999/xlink" viewBox="0 0 839.55 607.63"><defs><style>.cls-1{isolation:isolate;}.cls-2{fill:url(#linear-gradient);}.cls-3{fill:url(#linear-gradient-2);}.cls-4{fill:url(#linear-gradient-3);}.cls-5,.cls-6,.cls-8,.cls-9{mix-blend-mode:color-dodge;}.cls-5{fill:url(#New_Gradient_Swatch_1);}.cls-6{fill:url(#New_Gradient_Swatch_1-2);}.cls-7{fill:url(#linear-gradient-4);}.cls-8{fill:url(#New_Gradient_Swatch_1-3);}.cls-9{fill:url(#New_Gradient_Swatch_1-4);}</style><linearGradient id="linear-gradient" x1="203.27" y1="569" x2="131.68" y2="493.43" gradientUnits="userSpaceOnUse"><stop offset="0" stop-color="#272b2c"/><stop offset="1" stop-color="#6c5ba7"/></linearGradient><linearGradient id="linear-gradient-2" x1="-84.58" y1="652.19" x2="230.13" y2="513.48" xlink:href="#linear-gradient"/><linearGradient id="linear-gradient-3" x1="351.45" y1="580.44" x2="576.17" y2="373.62" xlink:href="#linear-gradient"/><radialGradient id="New_Gradient_Swatch_1" cx="701.46" cy="18.21" r="249.25" gradientUnits="userSpaceOnUse"><stop offset="0.01" stop-color="#6c5ba7"/><stop offset="1" stop-color="#6c5ba7" stop-opacity="0"/></radialGradient><radialGradient id="New_Gradient_Swatch_1-2" cx="15.51" cy="321.5" r="153.8" xlink:href="#New_Gradient_Swatch_1"/><linearGradient id="linear-gradient-4" x1="376.62" y1="320.57" x2="500.42" y2="480.17" xlink:href="#linear-gradient"/><radialGradient id="New_Gradient_Swatch_1-3" cx="603.53" cy="534.52" r="144.54" xlink:href="#New_Gradient_Swatch_1"/><radialGradient id="New_Gradient_Swatch_1-4" cx="362.26" cy="398.65" r="145.79" xlink:href="#New_Gradient_Swatch_1"/></defs><g class="cls-1"><g id="Layer_2" data-name="Layer 2"><g id="Layer_1-2" data-name="Layer 1"><path class="cls-2" d="M17.24,300.87A476.64,476.64,0,0,0,0,428.48c0,14.74.66,29.36,2,43.74A469.89,469.89,0,0,0,127.3,587.37c43.77,27.45,99.45,26.81,143.15-.75q19.69-12.42,38-26.7a370.67,370.67,0,0,1-110.2-38.24A373.81,373.81,0,0,1,17.24,300.87Z"/><path class="cls-3" d="M442.8,392.57A463,463,0,0,1,390,478.12a466.28,466.28,0,0,1-81.55,81.8q-18.29,14.25-38,26.7c-43.7,27.56-99.38,28.2-143.15.75a465.86,465.86,0,0,1-39.12-27.45,369.2,369.2,0,0,0,110.07-38.24,373.86,373.86,0,0,0,139-129.11q3.27-5.15,6.38-10.39a53.64,53.64,0,0,1,92.79,0Q439.54,387.44,442.8,392.57Z"/><path class="cls-4" d="M831,103.51A477.11,477.11,0,0,0,693.38,0a371.1,371.1,0,0,1,53.69,192.82c0,135.85-72.6,254.7-181.13,319.84a369.27,369.27,0,0,1-101,41.89q11.65,9.47,23.95,18.18a133.45,133.45,0,0,0,154.11,0q12.27-8.72,24-18.18c105.3-85.26,172.6-215.62,172.6-361.73A464.26,464.26,0,0,0,831,103.51Z"/><path class="cls-5" d="M831,103.51A477.11,477.11,0,0,0,693.38,0a371.1,371.1,0,0,1,53.69,192.82c0,135.85-72.6,254.7-181.13,319.84a369.27,369.27,0,0,1-101,41.89q11.65,9.47,23.95,18.18a133.45,133.45,0,0,0,154.11,0q12.27-8.72,24-18.18c105.3-85.26,172.6-215.62,172.6-361.73A464.26,464.26,0,0,0,831,103.51Z"/><path class="cls-6" d="M17.24,300.87A476.64,476.64,0,0,0,0,428.48c0,14.74.66,29.36,2,43.74A469.89,469.89,0,0,0,127.3,587.37c43.77,27.45,99.45,26.81,143.15-.75q19.69-12.42,38-26.7a370.67,370.67,0,0,1-110.2-38.24A373.81,373.81,0,0,1,17.24,300.87Z"/><path class="cls-7" d="M667,554.55q-11.67,9.47-24,18.18a133.45,133.45,0,0,1-154.11,0q-12.28-8.72-23.95-18.18a466.09,466.09,0,0,1-127.68-162q3.27-5.15,6.38-10.39a53.64,53.64,0,0,1,92.79,0q3.1,5.25,6.37,10.38A373.76,373.76,0,0,0,565.94,512.66,369.33,369.33,0,0,0,667,554.55Z"/><path class="cls-8" d="M667,554.55q-11.67,9.47-24,18.18a133.45,133.45,0,0,1-154.11,0q-12.28-8.72-23.95-18.18a466.09,466.09,0,0,1-127.68-162q3.27-5.15,6.38-10.39a53.64,53.64,0,0,1,92.79,0q3.1,5.25,6.37,10.38A373.76,373.76,0,0,0,565.94,512.66,369.33,369.33,0,0,0,667,554.55Z"/><path class="cls-9" d="M442.8,392.57A463,463,0,0,1,390,478.12a466.28,466.28,0,0,1-81.55,81.8q-18.29,14.25-38,26.7c-43.7,27.56-99.38,28.2-143.15.75a465.86,465.86,0,0,1-39.12-27.45,369.2,369.2,0,0,0,110.07-38.24,373.86,373.86,0,0,0,139-129.11q3.27-5.15,6.38-10.39a53.64,53.64,0,0,1,92.79,0Q439.54,387.44,442.8,392.57Z"/></g></g></g></svg>