<svg xmlns="http://www.w3.org/2000/svg" xmlns:xlink="http://www.w3.org/1999/xlink" viewBox="0 0 244.77 241.69"><defs><style>.cls-1{isolation:isolate;}.cls-2{fill:#fff;stroke:#231f20;stroke-miterlimit:10;}.cls-3{font-size:36.14px;fill:#272b2c;font-family:Raleway-Bold, Raleway;font-weight:700;letter-spacing:-0.07em;}.cls-4{letter-spacing:-0.04em;}.cls-5,.cls-6{fill:#6c5ba7;}.cls-5{letter-spacing:-0.1em;}.cls-6{letter-spacing:-0.04em;}.cls-7{fill:url(#linear-gradient);}.cls-10,.cls-12,.cls-14,.cls-8{mix-blend-mode:color-dodge;}.cls-8{fill:url(#New_Gradient_Swatch_1);}.cls-9{fill:url(#linear-gradient-2);}.cls-10{fill:url(#New_Gradient_Swatch_1-2);}.cls-11{fill:url(#linear-gradient-3);}.cls-12{fill:url(#New_Gradient_Swatch_1-3);}.cls-13{fill:url(#linear-gradient-4);}.cls-14{fill:url(#New_Gradient_Swatch_1-4);}.cls-15{fill:url(#radial-gradient);}.cls-16{fill:url(#linear-gradient-5);}</style><linearGradient id="linear-gradient" x1="120.93" y1="148.33" x2="144.59" y2="126.55" gradientUnits="userSpaceOnUse"><stop offset="0" stop-color="#272b2c"/><stop offset="1" stop-color="#6c5ba7"/></linearGradient><radialGradient id="New_Gradient_Swatch_1" cx="157.78" cy="89.13" r="26.25" gradientUnits="userSpaceOnUse"><stop offset="0.01" stop-color="#6c5ba7"/><stop offset="1" stop-color="#6c5ba7" stop-opacity="0"/></radialGradient><linearGradient id="linear-gradient-2" x1="105.32" y1="147.13" x2="97.78" y2="139.17" xlink:href="#linear-gradient"/><radialGradient id="New_Gradient_Swatch_1-2" cx="85.55" cy="121.07" r="16.2" xlink:href="#New_Gradient_Swatch_1"/><linearGradient id="linear-gradient-3" x1="123.58" y1="120.97" x2="136.61" y2="137.77" xlink:href="#linear-gradient"/><radialGradient id="New_Gradient_Swatch_1-3" cx="147.47" cy="143.5" r="15.22" xlink:href="#New_Gradient_Swatch_1"/><linearGradient id="linear-gradient-4" x1="75.01" y1="155.89" x2="108.15" y2="141.28" xlink:href="#linear-gradient"/><radialGradient id="New_Gradient_Swatch_1-4" cx="122.06" cy="129.19" r="15.35" xlink:href="#New_Gradient_Swatch_1"/><radialGradient id="radial-gradient" cx="131.49" cy="55.68" r="55.61" gradientUnits="userSpaceOnUse"><stop offset="0" stop-color="#58595b"/><stop offset="0.99" stop-color="#272b2c"/></radialGradient><linearGradient id="linear-gradient-5" x1="121.54" y1="75" x2="121.54" y2="-88.86" gradientUnits="userSpaceOnUse"><stop offset="0.01" stop-color="#272b2c"/><stop offset="1" stop-color="#414042" stop-opacity="0"/></linearGradient></defs><g class="cls-1"><g id="Layer_2" data-name="Layer 2"><g id="Layer_1-2" data-name="Layer 1"><rect class="cls-2" x="0.5" y="0.5" width="243.77" height="240.69"/><text class="cls-3" transform="translate(27.38 210.61) scale(1.13 1)">O<tspan class="cls-4" x="24.94" y="0">AK</tspan><tspan class="cls-5" x="70.44" y="0">WA</tspan><tspan class="cls-6" x="125.42" y="0">VE</tspan></text><path class="cls-7" d="M171.42,98.11a50.09,50.09,0,0,0-14.49-10.9,39.28,39.28,0,0,1-24.05,58.4c.82.66,1.66,1.3,2.52,1.91a14.05,14.05,0,0,0,16.23,0c.86-.61,1.7-1.25,2.52-1.91a49,49,0,0,0,17.27-47.5Z"/><path class="cls-8" d="M171.42,98.11a50.09,50.09,0,0,0-14.49-10.9,39.28,39.28,0,0,1-24.05,58.4c.82.66,1.66,1.3,2.52,1.91a14.05,14.05,0,0,0,16.23,0c.86-.61,1.7-1.25,2.52-1.91a49,49,0,0,0,17.27-47.5Z"/><path class="cls-9" d="M85.73,118.89a50.12,50.12,0,0,0-1.82,13.44c0,1.55.07,3.09.21,4.61a48.7,48.7,0,0,0,9.08,9.23,46.88,46.88,0,0,0,4.12,2.89A14.16,14.16,0,0,0,112.4,149q2.07-1.3,4-2.81a39.2,39.2,0,0,1-30.67-27.28Z"/><path class="cls-10" d="M85.73,118.89a50.12,50.12,0,0,0-1.82,13.44c0,1.55.07,3.09.21,4.61a48.7,48.7,0,0,0,9.08,9.23,46.88,46.88,0,0,0,4.12,2.89A14.16,14.16,0,0,0,112.4,149q2.07-1.3,4-2.81a39.2,39.2,0,0,1-30.67-27.28Z"/><path class="cls-11" d="M154.15,145.61c-.82.66-1.66,1.3-2.52,1.91a14.05,14.05,0,0,1-16.23,0c-.86-.61-1.7-1.25-2.52-1.91a49.23,49.23,0,0,1-13.45-17.06c.23-.36.45-.73.67-1.09a5.65,5.65,0,0,1,9.78,0c.21.36.44.73.67,1.09a39.22,39.22,0,0,0,23.6,17.06Z"/><path class="cls-12" d="M154.15,145.61c-.82.66-1.66,1.3-2.52,1.91a14.05,14.05,0,0,1-16.23,0c-.86-.61-1.7-1.25-2.52-1.91a49.23,49.23,0,0,1-13.45-17.06c.23-.36.45-.73.67-1.09a5.65,5.65,0,0,1,9.78,0c.21.36.44.73.67,1.09a39.22,39.22,0,0,0,23.6,17.06Z"/><path class="cls-13" d="M130.55,128.55a49.28,49.28,0,0,1-14.15,17.62q-1.94,1.5-4,2.81a14.16,14.16,0,0,1-15.08.08,46.88,46.88,0,0,1-4.12-2.89,38.88,38.88,0,0,0,11.59-4,39.36,39.36,0,0,0,14.64-13.6c.23-.36.45-.73.67-1.09a5.65,5.65,0,0,1,9.78,0C130.09,127.82,130.32,128.19,130.55,128.55Z"/><path class="cls-14" d="M130.55,128.55a49.28,49.28,0,0,1-14.15,17.62q-1.94,1.5-4,2.81a14.16,14.16,0,0,1-15.08.08,46.88,46.88,0,0,1-4.12-2.89,38.88,38.88,0,0,0,11.59-4,39.36,39.36,0,0,0,14.64-13.6c.23-.36.45-.73.67-1.09a5.65,5.65,0,0,1,9.78,0C130.09,127.82,130.32,128.19,130.55,128.55Z"/><path class="cls-15" d="M169,89.65l-.88-.7a54.91,54.91,0,0,0-16.66-8.86,39.36,39.36,0,0,0-7.92-6.26,39.31,39.31,0,0,0-38.71-1,39.26,39.26,0,0,0-20.75,34.63c0,.85,0,1.68.08,2.51a54.26,54.26,0,0,0-4.59,18.67c0,.25,0,.5-.05.75a49,49,0,0,1,13.7-60.58,49.07,49.07,0,0,1,50.32-6,48.57,48.57,0,0,1,10.64,6.57A49.24,49.24,0,0,1,169,89.65Z"/><path class="cls-16" d="M168.09,89a54.91,54.91,0,0,0-16.66-8.86,39.36,39.36,0,0,0-7.92-6.26,39.31,39.31,0,0,0-38.71-1,39.26,39.26,0,0,0-20.75,34.63c0,.85,0,1.68.08,2.51a54.26,54.26,0,0,0-4.59,18.67A48.51,48.51,0,0,1,154,70.45,48.69,48.69,0,0,1,168.09,89Z"/></g></g></g></svg>